REM DIRINDEX 1\2,1\3,1\4,1\5,1\6
REM DIRNAME folder01,folder02,folder03,folder04,folder05,folder06
TITLE ""
FILE "Disc6Track19.mp3" MP3
  TRACK 01 AUDIO
    TITLE "3:cjc030_10987"
    INDEX 01 00:00:00
  TRACK 02 AUDIO
    TITLE "0:"
    INDEX 01 00:00:66
  TRACK 03 AUDIO
    TITLE "4:cjc030_10988"
    INDEX 01 00:01:01
  TRACK 04 AUDIO
    TITLE "0:"
    INDEX 01 00:02:45
  TRACK 05 AUDIO
    TITLE "5:cjc030_10989"
    INDEX 01 00:02:53
  TRACK 06 AUDIO
    TITLE "0:"
    INDEX 01 00:03:53
  TRACK 07 AUDIO
    TITLE "6:cjc030_10990"
    INDEX 01 00:03:66
  TRACK 08 AUDIO
    TITLE "0:"
    INDEX 01 00:07:47
  TRACK 09 AUDIO
    TITLE "3:cjc030_10991"
    INDEX 01 00:08:21
  TRACK 10 AUDIO
    TITLE "0:"
    INDEX 01 00:10:65
  TRACK 11 AUDIO
    TITLE "4:cjc030_10992"
    INDEX 01 00:10:74
  TRACK 12 AUDIO
    TITLE "0:"
    INDEX 01 00:13:69
  TRACK 13 AUDIO
    TITLE "5:cjc030_10993"
    INDEX 01 00:14:02
  TRACK 14 AUDIO
    TITLE "0:"
    INDEX 01 00:16:48
  TRACK 15 AUDIO
    TITLE "6:cjc030_10994"
    INDEX 01 00:16:59
  TRACK 16 AUDIO
    TITLE "0:"
    INDEX 01 00:18:23
  TRACK 17 AUDIO
    TITLE "3:cjc030_10995"
    INDEX 01 00:18:74
  TRACK 18 AUDIO
    TITLE "0:"
    INDEX 01 00:20:16
  TRACK 19 AUDIO
    TITLE "4:cjc030_10996"
    INDEX 01 00:20:28
  TRACK 20 AUDIO
    TITLE "0:"
    INDEX 01 00:21:66
  TRACK 21 AUDIO
    TITLE "5:cjc030_10997"
    INDEX 01 00:22:01
  TRACK 22 AUDIO
    TITLE "0:"
    INDEX 01 00:23:22
  TRACK 23 AUDIO
    TITLE "6:cjc030_10998"
    INDEX 01 00:23:30
  TRACK 24 AUDIO
    TITLE "0:"
    INDEX 01 00:28:37
  TRACK 25 AUDIO
    TITLE "3:cjc030_10999"
    INDEX 01 00:29:09
  TRACK 26 AUDIO
    TITLE "0:"
    INDEX 01 00:30:22
  TRACK 27 AUDIO
    TITLE "4:cjc030_11000"
    INDEX 01 00:30:32
  TRACK 28 AUDIO
    TITLE "0:"
    INDEX 01 00:31:35
  TRACK 29 AUDIO
    TITLE "5:cjc030_11001"
    INDEX 01 00:31:43
  TRACK 30 AUDIO
    TITLE "0:"
    INDEX 01 00:32:60
  TRACK 31 AUDIO
    TITLE "6:cjc030_11002"
    INDEX 01 00:32:72
  TRACK 32 AUDIO
    TITLE "0:"
    INDEX 01 00:34:36
  TRACK 33 AUDIO
    TITLE "3:cjc030_11003"
    INDEX 01 00:35:10
  TRACK 34 AUDIO
    TITLE "0:"
    INDEX 01 00:36:35
  TRACK 35 AUDIO
    TITLE "4:cjc030_11004"
    INDEX 01 00:36:46
  TRACK 36 AUDIO
    TITLE "0:"
    INDEX 01 00:37:67
  TRACK 37 AUDIO
    TITLE "5:cjc030_11005"
    INDEX 01 00:38:02
  TRACK 38 AUDIO
    TITLE "0:"
    INDEX 01 00:39:29
  TRACK 39 AUDIO
    TITLE "6:cjc030_11006"
    INDEX 01 00:39:41
  TRACK 40 AUDIO
    TITLE "0:"
    INDEX 01 00:41:32
  TRACK 41 AUDIO
    TITLE "3:cjc030_11007"
    INDEX 01 00:42:06
  TRACK 42 AUDIO
    TITLE "0:"
    INDEX 01 00:43:27
  TRACK 43 AUDIO
    TITLE "4:cjc030_11008"
    INDEX 01 00:43:35
  TRACK 44 AUDIO
    TITLE "0:"
    INDEX 01 00:44:73
  TRACK 45 AUDIO
    TITLE "5:cjc030_11009"
    INDEX 01 00:45:08
  TRACK 46 AUDIO
    TITLE "0:"
    INDEX 01 00:46:29
  TRACK 47 AUDIO
    TITLE "3:cjc030_11010"
    INDEX 01 00:47:03
  TRACK 48 AUDIO
    TITLE "0:"
    INDEX 01 00:48:06
  TRACK 49 AUDIO
    TITLE "4:cjc030_11011"
    INDEX 01 00:48:16
  TRACK 50 AUDIO
    TITLE "0:"
    INDEX 01 00:49:29
  TRACK 51 AUDIO
    TITLE "5:cjc030_11012"
    INDEX 01 00:49:39
  TRACK 52 AUDIO
    TITLE "0:"
    INDEX 01 00:50:42
  TRACK 53 AUDIO
    TITLE "3:cjc030_11013"
    INDEX 01 00:51:18
  TRACK 54 AUDIO
    TITLE "0:"
    INDEX 01 00:52:26
  TRACK 55 AUDIO
    TITLE "4:cjc030_11014"
    INDEX 01 00:52:37
  TRACK 56 AUDIO
    TITLE "0:"
    INDEX 01 00:55:10
  TRACK 57 AUDIO
    TITLE "5:cjc030_11015"
    INDEX 01 00:55:18
  TRACK 58 AUDIO
    TITLE "0:"
    INDEX 01 00:56:29
  TRACK 59 AUDIO
    TITLE "6:cjc030_11016"
    INDEX 01 00:56:39
  TRACK 60 AUDIO
    TITLE "0:"
    INDEX 01 01:01:13
  TRACK 61 AUDIO
    TITLE "3:cjc030_11017"
    INDEX 01 01:01:60
  TRACK 62 AUDIO
    TITLE "0:"
    INDEX 01 01:02:69
  TRACK 63 AUDIO
    TITLE "4:cjc030_11018"
    INDEX 01 01:03:04
  TRACK 64 AUDIO
    TITLE "0:"
    INDEX 01 01:04:00
  TRACK 65 AUDIO
    TITLE "5:cjc030_11019"
    INDEX 01 01:04:09
  TRACK 66 AUDIO
    TITLE "0:"
    INDEX 01 01:05:17
  TRACK 67 AUDIO
    TITLE "3:cjc030_11020"
    INDEX 01 01:05:71
  TRACK 68 AUDIO
    TITLE "0:"
    INDEX 01 01:07:14
  TRACK 69 AUDIO
    TITLE "4:cjc030_11021"
    INDEX 01 01:07:25
  TRACK 70 AUDIO
    TITLE "0:"
    INDEX 01 01:09:05
  TRACK 71 AUDIO
    TITLE "5:cjc030_11022"
    INDEX 01 01:09:14
  TRACK 72 AUDIO
    TITLE "0:"
    INDEX 01 01:10:35
  TRACK 73 AUDIO
    TITLE "6:cjc030_11023"
    INDEX 01 01:10:43
  TRACK 74 AUDIO
    TITLE "0:"
    INDEX 01 01:13:67
  TRACK 75 AUDIO
    TITLE "3:cjc030_11024"
    INDEX 01 01:14:39
  TRACK 76 AUDIO
    TITLE "0:"
    INDEX 01 01:15:64
  TRACK 77 AUDIO
    TITLE "4:cjc030_11025"
    INDEX 01 01:15:74
  TRACK 78 AUDIO
    TITLE "0:"
    INDEX 01 01:17:26
  TRACK 79 AUDIO
    TITLE "5:cjc030_11026"
    INDEX 01 01:17:35
  TRACK 80 AUDIO
    TITLE "0:"
    INDEX 01 01:18:64
